<?xml version="1.0" standalone="no"?>
<!DOCTYPE svg PUBLIC "-//W3C//DTD SVG 20010904//EN"
 "http://www.w3.org/TR/2001/REC-SVG-20010904/DTD/svg10.dtd">
<svg version="1.0" xmlns="http://www.w3.org/2000/svg"
 width="1066.000000pt" height="1066.000000pt" viewBox="0 0 1066.000000 1066.000000"
 preserveAspectRatio="xMidYMid meet">

<g transform="translate(0.000000,1066.000000) scale(0.100000,-0.100000)"
fill="#000000" stroke="none">
<path d="M6068 9893 c-16 -2 -28 -8 -28 -13 0 -18 67 -28 114 -17 45 10 63 27
29 27 -10 0 -34 2 -53 4 -19 2 -47 2 -62 -1z"/>
<path d="M5850 9755 c-19 -20 -60 -48 -91 -64 -85 -42 -94 -51 -117 -113 -12
-32 -32 -75 -45 -95 -13 -21 -27 -56 -31 -78 -7 -40 -20 -85 -39 -138 -12 -33
-127 -155 -179 -190 -77 -53 -115 -60 -238 -47 -107 12 -115 12 -184 -10 -70
-22 -73 -23 -89 -69 -10 -25 -31 -56 -46 -69 -33 -25 -107 -42 -185 -42 -69 0
-138 -46 -157 -104 -16 -53 -35 -75 -82 -93 -53 -22 -103 -84 -112 -138 -9
-61 -38 -85 -126 -99 -20 -4 -54 -22 -78 -42 -46 -39 -48 -63 -9 -96 28 -24
66 -22 135 6 32 13 73 30 92 37 24 9 45 31 77 80 46 72 78 95 164 120 46 13
80 35 80 51 0 28 73 118 119 147 l52 33 152 -5 c233 -8 333 -41 403 -133 26
-34 27 -40 30 -182 4 -212 40 -340 93 -330 25 5 70 226 71 348 1 109 5 124 50
176 51 59 88 82 142 88 144 18 186 28 207 50 l21 22 -23 31 c-12 18 -37 39
-54 47 -68 32 -111 121 -134 276 -13 89 -5 152 33 270 35 111 43 126 85 144
61 27 63 29 91 78 25 44 26 49 14 95 -11 42 -33 73 -52 73 -3 0 -22 -16 -40
-35z"/>
<path d="M6475 9673 c-55 -7 -59 -12 -31 -34 27 -21 40 -59 51 -149 6 -47 18
-127 40 -266 3 -19 23 -49 49 -76 32 -32 49 -60 61 -101 9 -31 23 -70 31 -87
9 -16 24 -72 34 -124 11 -51 29 -115 42 -140 20 -42 25 -46 48 -41 34 9 60 33
77 74 12 28 12 52 2 150 -6 64 -20 139 -29 166 -10 28 -24 75 -30 105 -23 103
-38 128 -94 153 -41 19 -55 32 -68 63 -27 67 -73 207 -88 272 -12 45 -13 46
-95 35z"/>
<path d="M3852 8148 c-24 -32 -32 -52 -32 -84 0 -63 -22 -83 -100 -92 -61 -7
-66 -9 -93 -48 l-29 -41 17 -74 c9 -41 24 -92 34 -114 l18 -40 13 40 c16 50
79 136 120 165 21 15 30 30 30 49 0 31 16 52 36 44 9 -3 25 20 49 72 19 43 35
85 35 95 0 16 -45 70 -59 70 -4 0 -21 -19 -39 -42z"/>
<path d="M6302 7730 l-22 -71 21 -40 c13 -27 32 -45 54 -55 18 -7 37 -18 40
-24 4 -6 11 -8 16 -5 5 4 9 -17 9 -47 1 -29 8 -71 16 -93 9 -22 25 -70 37
-107 l21 -67 -35 -113 c-18 -62 -32 -117 -30 -123 3 -5 17 -58 32 -117 33
-129 68 -186 136 -220 25 -13 60 -40 77 -62 42 -51 85 -71 186 -85 47 -7 96
-14 110 -16 14 -2 68 3 120 12 74 11 144 13 317 8 150 -5 263 -3 350 6 111 11
143 10 243 -4 63 -9 163 -19 222 -23 103 -7 110 -6 202 26 53 18 96 37 96 41
0 4 -37 17 -82 29 -69 19 -105 23 -213 21 -71 -1 -177 -8 -235 -14 -58 -7
-136 -9 -175 -6 -38 4 -194 7 -345 8 -293 1 -401 14 -502 59 -46 20 -90 68
-103 112 -4 14 -26 74 -48 134 l-41 110 12 106 c7 58 12 180 13 270 0 91 4
191 8 223 6 52 5 60 -12 72 -25 17 -54 4 -67 -29 -21 -57 -108 -88 -235 -84
l-70 2 -2 53 c-1 43 -8 62 -36 100 -18 27 -37 56 -40 66 -11 31 -23 18 -45
-53z"/>
<path d="M3422 7270 c-11 -25 -23 -79 -27 -120 -4 -41 -13 -105 -22 -143 -17
-80 -57 -129 -117 -146 -46 -12 -116 -76 -116 -106 0 -41 -22 -96 -44 -110
-12 -8 -89 -26 -171 -40 -81 -15 -156 -30 -167 -36 -12 -6 -18 -21 -18 -44 0
-41 25 -69 54 -61 12 3 64 10 116 16 52 6 109 15 125 20 189 59 169 49 210
109 32 47 79 81 147 107 83 32 77 14 108 314 5 52 13 118 16 147 6 50 5 52
-34 95 l-41 43 -19 -45z"/>
<path d="M4093 6788 c-6 -7 -20 -44 -33 -83 -24 -77 -103 -216 -145 -255 -38
-35 -65 -93 -65 -137 1 -21 9 -76 18 -123 l17 -84 65 -19 c36 -10 88 -26 115
-36 28 -11 95 -27 150 -36 55 -10 103 -20 107 -22 16 -9 79 97 104 175 15 45
39 100 55 122 26 36 28 43 19 87 -20 105 -43 177 -70 220 -16 25 -39 76 -51
112 -12 36 -28 72 -37 79 -11 8 -53 12 -128 12 -77 0 -115 -4 -121 -12z"/>
<path d="M2340 6380 c-78 -13 -158 -47 -195 -84 -58 -58 -66 -120 -64 -500 0
-177 0 -373 -1 -437 -1 -101 11 -262 26 -339 3 -18 17 -30 50 -44 71 -29 111
-80 129 -167 4 -19 16 -44 27 -55 19 -22 20 -22 70 -3 37 13 65 34 101 74 27
31 65 62 83 70 32 13 64 61 64 95 0 22 -76 39 -222 50 -230 16 -239 20 -259
94 -15 54 -13 750 1 823 14 65 45 113 89 135 19 9 53 34 75 56 74 69 111 91
179 107 37 9 90 29 117 46 41 25 48 34 41 48 -6 10 -27 23 -49 29 -42 13 -189
14 -262 2z"/>
<path d="M7795 5934 c-11 -2 -46 -10 -78 -16 -69 -15 -91 -33 -56 -47 76 -31
210 -41 535 -41 181 1 345 1 364 1 49 0 186 -37 240 -64 33 -16 51 -34 65 -65
13 -27 40 -55 73 -78 56 -40 64 -39 93 13 15 26 15 34 -6 116 -13 52 -31 97
-44 111 -40 42 -128 61 -306 64 -449 7 -862 10 -880 6z"/>
<path d="M3385 5036 c-124 -33 -130 -36 -147 -64 -17 -28 -23 -30 -120 -41
-76 -8 -110 -17 -128 -31 -43 -35 -102 -58 -167 -66 -60 -6 -123 -34 -123 -53
0 -22 85 -33 191 -26 58 3 159 2 225 -4 103 -10 133 -9 222 7 l104 18 106 -24
c102 -23 112 -24 212 -11 127 15 123 15 335 0 94 -7 208 -10 255 -7 88 7 216
29 226 38 5 6 34 180 34 211 0 11 -14 24 -37 34 -31 13 -88 16 -303 18 -146 2
-393 5 -550 8 -218 5 -297 3 -335 -7z"/>
<path d="M4030 4365 c-25 -7 -56 -17 -70 -23 l-25 -9 32 -17 c18 -9 37 -16 43
-16 6 0 28 -11 50 -25 48 -30 89 -32 124 -4 41 32 34 61 -19 87 -51 24 -69 25
-135 7z"/>
<path d="M4285 4218 c-50 -29 -54 -54 -37 -233 6 -60 9 -112 7 -115 -2 -3 -5
-56 -6 -118 -3 -100 -1 -114 16 -132 11 -10 32 -22 46 -25 22 -5 29 -1 46 27
15 26 22 67 32 198 6 91 18 193 25 228 l14 62 -47 60 c-47 61 -61 68 -96 48z"/>
<path d="M6078 3857 c-22 -46 -82 -84 -146 -92 -48 -6 -57 -11 -83 -48 -17
-23 -39 -62 -50 -87 -27 -61 -53 -86 -129 -126 -87 -45 -93 -50 -129 -117 -17
-32 -49 -77 -71 -99 -30 -32 -42 -54 -51 -97 -6 -31 -19 -87 -29 -124 -22 -78
-16 -106 26 -134 l27 -17 35 39 c19 22 40 54 48 71 17 41 65 80 106 89 47 10
149 86 181 133 33 51 109 95 212 122 107 29 155 60 155 101 0 34 22 83 53 117
34 37 79 43 212 28 184 -21 221 -44 288 -176 47 -95 59 -102 132 -79 22 7 43
12 47 11 4 -1 15 10 25 24 15 23 15 32 4 83 -7 31 -18 85 -25 121 -7 36 -18
76 -25 90 -17 31 -91 133 -104 142 -6 3 -32 -9 -59 -27 -69 -48 -136 -70 -282
-95 -124 -21 -129 -21 -184 -4 -74 24 -109 57 -131 123 -10 30 -22 56 -27 58
-6 2 -17 -11 -26 -30z"/>
<path d="M8645 3719 c-38 -5 -128 -8 -200 -7 -113 1 -138 -2 -188 -21 -52 -21
-57 -24 -40 -35 56 -38 107 -48 238 -45 72 1 223 -1 337 -6 233 -9 396 4 461
36 20 11 37 21 37 23 0 3 -15 13 -33 25 -59 36 -410 54 -612 30z"/>
<path d="M7817 3492 l-58 -47 4 -50 c5 -59 19 -111 39 -153 8 -16 12 -36 8
-43 -4 -8 -12 -80 -19 -160 -6 -80 -16 -163 -22 -184 -6 -22 -13 -131 -15
-244 -2 -114 -5 -231 -6 -261 -1 -30 7 -82 17 -115 21 -68 24 -216 5 -299 -17
-78 -23 -282 -10 -376 14 -102 14 -128 -3 -246 -18 -131 -3 -169 81 -198 l42
-15 31 61 c29 57 31 67 31 177 0 64 1 298 2 521 4 618 -9 1142 -32 1263 l-19
99 33 111 32 111 -19 38 c-16 31 -46 59 -61 58 -2 -1 -29 -22 -61 -48z"/>
<path d="M4085 3468 c-14 -33 -45 -251 -45 -322 0 -20 -4 -46 -10 -56 -12 -22
-60 -40 -109 -40 -45 -1 -84 -33 -101 -86 -24 -73 -59 -113 -127 -145 -31 -14
-45 -28 -49 -47 -25 -113 -65 -176 -136 -210 -24 -12 -49 -25 -56 -30 -17 -12
-80 -193 -88 -256 -15 -114 -76 -257 -127 -295 -10 -7 -23 -25 -28 -39 -19
-50 -51 -267 -46 -315 4 -43 28 -87 48 -87 13 0 56 90 72 153 23 88 46 119
104 142 76 31 80 36 93 133 20 151 37 225 70 312 51 136 58 150 86 162 29 14
59 66 70 123 15 88 50 127 133 152 62 18 86 41 101 98 30 112 35 119 123 185
39 29 52 48 79 115 31 76 32 86 33 213 0 129 -1 134 -24 153 -33 27 -49 24
-66 -13z"/>
<path d="M6789 2913 c-21 -5 -64 -116 -61 -157 2 -16 11 -70 22 -120 16 -73
18 -101 10 -146 -14 -81 -15 -162 -2 -187 10 -18 18 -20 54 -16 113 15 120 39
56 210 -11 29 -18 56 -15 60 3 5 25 19 50 31 72 36 92 61 106 129 9 47 9 72 0
110 -7 26 -13 50 -15 51 -4 6 -77 22 -124 28 -25 3 -49 6 -55 8 -5 1 -17 1
-26 -1z"/>
<path d="M5191 2816 c-12 -18 -26 -58 -31 -87 -17 -88 -94 -220 -140 -239 -39
-16 -96 -150 -104 -242 -3 -38 -10 -76 -15 -87 -12 -21 -60 -41 -101 -41 -23
0 -29 -6 -39 -42 -20 -65 -55 -112 -137 -182 -44 -38 -89 -88 -109 -120 -18
-31 -43 -68 -54 -82 -26 -33 -27 -85 -2 -108 10 -9 34 -19 54 -23 32 -5 42 0
106 52 39 31 71 64 71 72 0 30 30 71 57 78 38 8 83 108 83 180 0 60 15 118 34
134 8 7 42 15 76 19 l62 7 23 62 c12 35 40 83 61 109 22 25 47 61 56 80 10 18
32 41 49 49 47 25 90 126 100 240 5 50 11 102 15 117 4 22 -1 34 -24 58 -40
39 -65 38 -91 -4z"/>
<path d="M4276 1491 c-43 -44 -46 -50 -35 -69 14 -23 50 -42 78 -42 9 0 36 14
59 31 37 27 42 35 39 64 -5 45 -23 65 -61 65 -25 0 -42 -11 -80 -49z"/>
<path d="M2967 1483 c-21 -14 -46 -45 -56 -67 -17 -41 -54 -76 -120 -119 -18
-12 -40 -35 -50 -50 -16 -28 -15 -29 15 -57 23 -20 47 -30 85 -35 30 -4 78
-16 108 -26 49 -17 57 -17 78 -4 41 27 55 62 69 176 9 62 20 121 25 131 8 14
4 24 -15 43 -14 14 -33 25 -43 25 -10 0 -27 3 -38 5 -12 4 -35 -5 -58 -22z"/>
<path d="M6535 1450 c-4 -6 -2 -17 5 -25 10 -11 18 -11 56 3 41 15 43 18 22
23 -37 11 -76 10 -83 -1z"/>
<path d="M4042 1285 c-35 -18 -88 -38 -118 -45 -29 -7 -54 -16 -54 -20 0 -24
40 -35 140 -38 100 -4 108 -3 134 20 31 26 29 60 -5 97 -24 25 -18 26 -97 -14z"/>
<path d="M6311 1246 c-6 -7 -20 -38 -30 -68 -27 -77 -49 -119 -84 -150 l-29
-28 54 -53 c29 -29 67 -79 83 -110 27 -53 34 -59 80 -73 131 -39 223 -45 645
-38 384 6 407 8 443 27 42 23 43 32 3 61 -26 20 -46 21 -339 28 -417 8 -600
28 -644 70 -27 26 -47 84 -69 206 -14 80 -21 96 -46 117 -33 28 -50 31 -67 11z"/>
<path d="M3186 1016 c-18 -15 -18 -16 5 -24 28 -11 489 -3 489 8 0 4 -82 10
-182 13 -101 4 -208 9 -238 12 -41 4 -60 2 -74 -9z"/>
</g>
</svg>
